<mxfile host="drawio-plugin" modified="2023-04-24T10:07:12.283Z" agent="5.0 (Macintosh; Intel Mac OS X 10_15_7) AppleWebKit/537.36 (KHTML, like Gecko) Chrome/104.0.5112.102 Safari/537.36" etag="moxVU1r-fIwABNHbiWFO" version="20.5.3" type="embed"><diagram id="C5RBs43oDa-KdzZeNtuy" name="Page-1"><mxGraphModel dx="1551" dy="553" grid="1" gridSize="10" guides="1" tooltips="1" connect="1" arrows="1" fold="1" page="1" pageScale="1" pageWidth="827" pageHeight="1169" math="0" shadow="0"><root><mxCell id="WIyWlLk6GJQsqaUBKTNV-0"/><mxCell id="WIyWlLk6GJQsqaUBKTNV-1" parent="WIyWlLk6GJQsqaUBKTNV-0"/><mxCell id="WIyWlLk6GJQsqaUBKTNV-2" value="" style="rounded=0;html=1;jettySize=auto;orthogonalLoop=1;fontSize=11;endArrow=block;endFill=0;endSize=8;strokeWidth=1;shadow=0;labelBackgroundColor=none;edgeStyle=orthogonalEdgeStyle;" parent="WIyWlLk6GJQsqaUBKTNV-1" source="WIyWlLk6GJQsqaUBKTNV-3" target="WIyWlLk6GJQsqaUBKTNV-6" edge="1"><mxGeometry relative="1" as="geometry"/></mxCell><mxCell id="WIyWlLk6GJQsqaUBKTNV-3" value="TrustElev8 will send callback with age eligibility result" style="rounded=1;whiteSpace=wrap;html=1;fontSize=12;glass=0;strokeWidth=1;shadow=0;" parent="WIyWlLk6GJQsqaUBKTNV-1" vertex="1"><mxGeometry x="160" y="70" width="120" height="50" as="geometry"/></mxCell><mxCell id="WIyWlLk6GJQsqaUBKTNV-4" value="Yes" style="rounded=0;html=1;jettySize=auto;orthogonalLoop=1;fontSize=11;endArrow=block;endFill=0;endSize=8;strokeWidth=1;shadow=0;labelBackgroundColor=none;edgeStyle=orthogonalEdgeStyle;" parent="WIyWlLk6GJQsqaUBKTNV-1" source="WIyWlLk6GJQsqaUBKTNV-6" edge="1"><mxGeometry y="20" relative="1" as="geometry"><mxPoint as="offset"/><mxPoint x="220" y="290" as="targetPoint"/></mxGeometry></mxCell><mxCell id="WIyWlLk6GJQsqaUBKTNV-5" value="No" style="edgeStyle=orthogonalEdgeStyle;rounded=0;html=1;jettySize=auto;orthogonalLoop=1;fontSize=11;endArrow=block;endFill=0;endSize=8;strokeWidth=1;shadow=0;labelBackgroundColor=none;" parent="WIyWlLk6GJQsqaUBKTNV-1" source="WIyWlLk6GJQsqaUBKTNV-6" target="WIyWlLk6GJQsqaUBKTNV-7" edge="1"><mxGeometry y="10" relative="1" as="geometry"><mxPoint as="offset"/></mxGeometry></mxCell><mxCell id="WIyWlLk6GJQsqaUBKTNV-6" value="Is age eligible" style="rhombus;whiteSpace=wrap;html=1;shadow=0;fontFamily=Helvetica;fontSize=12;align=center;strokeWidth=1;spacing=6;spacingTop=-4;" parent="WIyWlLk6GJQsqaUBKTNV-1" vertex="1"><mxGeometry x="170" y="170" width="100" height="80" as="geometry"/></mxCell><mxCell id="WIyWlLk6GJQsqaUBKTNV-7" value="Forbidden page" style="rounded=1;whiteSpace=wrap;html=1;fontSize=12;glass=0;strokeWidth=1;shadow=0;" parent="WIyWlLk6GJQsqaUBKTNV-1" vertex="1"><mxGeometry x="320" y="190" width="120" height="40" as="geometry"/></mxCell><mxCell id="WIyWlLk6GJQsqaUBKTNV-11" value="Proceed to check out" style="rounded=1;whiteSpace=wrap;html=1;fontSize=12;glass=0;strokeWidth=1;shadow=0;" parent="WIyWlLk6GJQsqaUBKTNV-1" vertex="1"><mxGeometry x="160" y="290" width="120" height="40" as="geometry"/></mxCell><mxCell id="3GxhBOLvLWiTPkm_vRRr-7" style="edgeStyle=orthogonalEdgeStyle;rounded=0;orthogonalLoop=1;jettySize=auto;html=1;" parent="WIyWlLk6GJQsqaUBKTNV-1" source="3GxhBOLvLWiTPkm_vRRr-1" target="3GxhBOLvLWiTPkm_vRRr-5" edge="1"><mxGeometry relative="1" as="geometry"/></mxCell><mxCell id="3GxhBOLvLWiTPkm_vRRr-8" value="Yes&lt;br&gt;" style="edgeLabel;html=1;align=center;verticalAlign=middle;resizable=0;points=[];" parent="3GxhBOLvLWiTPkm_vRRr-7" vertex="1" connectable="0"><mxGeometry x="-0.2602" y="2" relative="1" as="geometry"><mxPoint x="18" as="offset"/></mxGeometry></mxCell><mxCell id="3GxhBOLvLWiTPkm_vRRr-1" value="&amp;nbsp;Are there any age-restricted items in the cart" style="rhombus;whiteSpace=wrap;html=1;shadow=0;fontFamily=Helvetica;fontSize=12;align=center;strokeWidth=1;spacing=6;spacingTop=-4;" parent="WIyWlLk6GJQsqaUBKTNV-1" vertex="1"><mxGeometry x="-100" y="60" width="160" height="120" as="geometry"/></mxCell><mxCell id="0" style="edgeStyle=orthogonalEdgeStyle;rounded=0;orthogonalLoop=1;jettySize=auto;html=1;exitX=1;exitY=0.5;exitDx=0;exitDy=0;entryX=0;entryY=0.5;entryDx=0;entryDy=0;dashed=1;dashPattern=1 4;" edge="1" parent="WIyWlLk6GJQsqaUBKTNV-1" source="3GxhBOLvLWiTPkm_vRRr-5" target="WIyWlLk6GJQsqaUBKTNV-3"><mxGeometry relative="1" as="geometry"/></mxCell><mxCell id="3GxhBOLvLWiTPkm_vRRr-5" value="&amp;nbsp;Show TrustElev8 iFrame" style="rounded=1;whiteSpace=wrap;html=1;" parent="WIyWlLk6GJQsqaUBKTNV-1" vertex="1"><mxGeometry x="-80" y="240" width="120" height="60" as="geometry"/></mxCell></root></mxGraphModel></diagram></mxfile>